# xmcd
#
# Track frame offsets:
#	150
#	10440
#	25413
#	36767
#	46652
#	58985
#	69415
#	82350
#	92571
#	105450
#	114156
#	124686
#	137678
#	149046
#	160122
#	182698
#
# Disc length: 2664 seconds
#
# Revision: 3
# Processed by: cddbd v1.5.2PL0 Copyright (c) Steve Scherf et al.
# Submitted via: EZCDAudioConverter 9.1.1.1
#
DISCID=db0a6610
DTITLE=Big Boy Bloater And His Aouthside Stompers - Great Big Hunk Of Man
DYEAR=2003
DGENRE=Blues
TTITLE0=Great Big Hunk Of Man
TTITLE1=They Call Me Big Boy Bloater
TTITLE2=I Had A Dream Last Night
TTITLE3=Talk To Me Baby
TTITLE4=She Felt Too Good
TTITLE5=Much Later
TTITLE6=You Got Me
TTITLE7=Mama He Treats Your Daughter Mean
TTITLE8=Gridlock City
TTITLE9=Do Right Baby
TTITLE10=King Kong
TTITLE11=I Miss You So
TTITLE12=Country Boogie
TTITLE13=Ain't No Rockin' No More
TTITLE14=Buzz Me
TTITLE15=Jump For Joy
EXTD=
EXTT0=
EXTT1=
EXTT2=
EXTT3=
EXTT4=
EXTT5=
EXTT6=
EXTT7=
EXTT8=
EXTT9=
EXTT10=
EXTT11=
EXTT12=
EXTT13=
EXTT14=
EXTT15=
PLAYORDER=
